Coordinates
version=1
nRows=13
nColumns=40
inDegrees=yes

Units are S.I. units (second, meters, Newtons, ...)
Angles are in degrees.

endheader
time	pelvis_tilt	pelvis_list	pelvis_rotation	pelvis_tx	pelvis_ty	pelvis_tz	hip_flexion_r	hip_adduction_r	hip_rotation_r	knee_angle_r	knee_angle_r_beta	ankle_angle_r	subtalar_angle_r	mtp_angle_r	hip_flexion_l	hip_adduction_l	hip_rotation_l	knee_angle_l	knee_angle_l_beta	ankle_angle_l	subtalar_angle_l	mtp_angle_l	lumbar_extension	lumbar_bending	lumbar_rotation	arm_flex_r	arm_add_r	arm_rot_r	elbow_flex_r	pro_sup_r	wrist_flex_r	wrist_dev_r	arm_flex_l	arm_add_l	arm_rot_l	elbow_flex_l	pro_sup_l	wrist_flex_l	wrist_dev_l
     14.23142857	     -5.30223146	     -2.35859950	     12.01798829	      1.00672250	      0.91898029	      0.53333565	      8.94880471	      1.53621200	     -7.88093196	     22.61327580	     22.61327580	     20.65895195	     -1.71893107	     -0.48736738	     28.65238737	     -6.58147482	      5.73820599	     19.75525386	     19.75525386	      5.45981406	     -5.14608612	      4.91958160	    -10.52538730	      4.25929741	      5.89213832	     71.10598557	    -13.03303856	      3.85810088	    107.92397312	     44.65619624	      0.00000000	      0.00000000	    -21.58349942	     -8.23505486	     36.70295641	     37.11759106	     43.33132495	      0.00000000	      0.00000000
     14.25285714	     -5.41708918	     -2.58952173	     11.89744016	      1.00753255	      0.91847604	      0.53060302	      8.59602994	      1.64992387	     -7.84965247	     22.35348011	     22.35348011	     20.78372698	     -1.49780568	     -0.48285103	     28.50438261	     -6.55186096	      5.20930838	     19.91376636	     19.91376636	      4.99709418	     -5.43614664	      4.94518713	    -10.17137673	      4.18416384	      5.96140777	     71.16928280	    -12.73767057	      3.97707076	    108.06755527	     44.64990452	      0.00000000	      0.00000000	    -21.40444911	     -8.72619200	     36.62653388	     36.97166408	     43.34449319	      0.00000000	      0.00000000
     14.27428571	     -5.47880994	     -2.84513718	     11.80216667	      1.00838152	      0.91801028	      0.52765245	      8.27755505	      1.77212761	     -7.84382276	     22.26949344	     22.26949344	     20.94471908	     -1.37921591	     -0.51920450	     28.28530487	     -6.59513103	      4.80500577	     20.11538607	     20.11538607	      4.59612282	     -5.68651116	      4.99128158	     -9.90156046	      4.14181711	      5.84215695	     71.13800823	    -12.59820345	      4.04017448	    108.14797216	     44.64594027	      0.00000000	      0.00000000	    -21.08959561	     -9.11546214	     36.54276655	     36.88256227	     43.35742974	      0.00000000	      0.00000000
     14.29571429	     -5.51695169	     -3.02574579	     11.59800042	      1.00934490	      0.91772165	      0.52461797	      7.85794549	      1.81288756	     -7.76345927	     22.06950354	     22.06950354	     21.02058242	     -1.08859834	     -0.51307653	     28.06881646	     -6.62704713	      4.52164532	     20.51271127	     20.51271127	      4.32851593	     -6.09683190	      4.83769342	     -9.70045209	      4.02531704	      5.80177326	     70.94527473	    -12.25197450	      4.21237806	    108.25182559	     44.63738873	      0.00000000	      0.00000000	    -20.41687741	     -9.81643054	     36.37421824	     36.71223582	     43.38368897	      0.00000000	      0.00000000
     14.31714286	     -5.38648237	     -3.22285630	     11.46506852	      1.01046041	      0.91779020	      0.52095887	      7.11307191	      1.73122821	     -8.37777494	     21.66576313	     21.66576313	     21.14374560	      0.36292073	     -0.53659703	     27.51856125	     -6.56811115	      4.89584438	     20.56540526	     20.56540526	      2.91820607	     -7.74133900	      1.96709075	     -9.64818403	      4.08516396	      6.03607660	     70.52701015	    -12.25843132	      4.25324127	    108.96573341	     44.63342970	      0.00000000	      0.00000000	    -19.09991606	     -9.87017947	     36.37941036	     34.76511745	     43.46415296	      0.00000000	      0.00000000
     14.33857143	     -5.42342825	     -3.32250374	     11.25533571	      1.01128494	      0.91778622	      0.51737362	      6.75819438	      1.64642954	     -8.21862668	     21.61153221	     21.61153221	     21.16105091	      0.43258755	     -0.51546986	     27.34403458	     -6.53200825	      4.78351544	     21.06025388	     21.06025388	      2.97735357	     -8.13221906	      1.75390846	     -9.47927355	      3.99445551	      5.99414493	     70.22296022	    -12.07193092	      4.40489889	    108.82464813	     44.63325429	      0.00000000	      0.00000000	    -18.16025534	    -10.58383425	     36.14301185	     34.73174260	     43.50523009	      0.00000000	      0.00000000
     14.36000000	     -5.44568990	     -3.42026767	     10.99469732	      1.01194827	      0.91797168	      0.51359329	      6.36221710	      1.53135552	     -8.07866426	     21.48158922	     21.48158922	     21.11595512	      0.66661427	     -0.48703416	     27.19650679	     -6.49261043	      4.75588905	     21.60159277	     21.60159277	      3.15022240	     -8.62622987	      1.55973621	     -9.37454174	      3.96934695	      5.99209004	     69.86397336	    -11.96894159	      4.54235323	    108.56030761	     44.63700605	      0.00000000	      0.00000000	    -17.04845480	    -11.29381109	     35.85635170	     34.70729684	     43.55489036	      0.00000000	      0.00000000
     14.38142857	     -5.41548832	     -3.61585707	     10.68153588	      1.01257325	      0.91836525	      0.50959885	      5.82244348	      1.47241253	     -8.15816021	     21.14041798	     21.14041798	     20.98171133	      1.38458610	     -0.50135591	     27.06706106	     -6.50821386	      5.03248290	     22.23988957	     22.23988957	      3.40798857	     -9.53637302	      1.45903757	     -9.26234722	      4.05302959	      6.32912426	     69.53437629	    -12.45241262	      4.55730174	    107.65011124	     44.66855774	      0.00000000	      0.00000000	    -15.71763600	    -11.83140163	     35.31009397	     34.50545533	     43.65513642	      0.00000000	      0.00000000
     14.40285714	     -5.43947374	     -3.65901592	     10.29757400	      1.01295425	      0.91885980	      0.50549725	      5.40510171	      1.23254021	     -8.05209055	     20.93908733	     20.93908733	     20.87345806	      1.93820910	     -0.53054059	     26.89520354	     -6.40134470	      5.05727647	     22.72171475	     22.72171475	      3.74348287	    -10.15422290	      1.46227714	     -9.20160204	      4.05335960	      6.48783411	     69.13260547	    -12.58961969	      4.67577112	    106.91431940	     44.68888214	      0.00000000	      0.00000000	    -14.34366671	    -12.44947562	     34.77640727	     34.45545321	     43.74735980	      0.00000000	      0.00000000
     14.42428571	     -5.50390542	     -3.70566605	      9.88130353	      1.01315481	      0.91940461	      0.50121651	      4.97511543	      0.91638137	     -8.27688038	     20.58793637	     20.58793637	     20.49183627	      2.89821914	     -1.24124866	     26.83499988	     -6.24303424	      5.17925416	     23.35948212	     23.35948212	      4.85897191	    -10.67989822	      3.30633010	     -9.11207510	      4.00854917	      6.30858187	     69.04721040	    -12.56798071	      4.96813564	    104.85088275	     44.81551850	      0.00000000	      0.00000000	    -13.28580855	    -11.70170443	     27.96224432	     33.17704748	     44.85737484	      0.00000000	      0.00000000
     14.44571429	     -5.52783010	     -3.81855111	      9.37655967	      1.01323728	      0.91989334	      0.49703597	      4.55728219	      0.73141076	     -8.15619699	     20.29194634	     20.29194634	     20.32293532	      3.54553373	     -1.19188742	     26.71682955	     -6.21729517	      5.13210103	     23.88412833	     23.88412833	      5.28327958	    -11.33815445	      3.23925991	     -9.06161604	      4.09022066	      6.67135795	     68.57304868	    -12.97896188	      4.90497965	    103.48543474	     44.86087745	      0.00000000	      0.00000000	    -11.80420935	    -12.33458438	     27.46898044	     33.53172051	     44.94295729	      0.00000000	      0.00000000
     14.46714286	     -5.57777153	     -3.90843927	      8.83890392	      1.01312112	      0.92034898	      0.49279626	      4.18093100	      0.48583668	     -8.10996975	     19.99765684	     19.99765684	     20.13860794	      4.34757829	     -1.20055459	     26.58919118	     -6.15747412	      5.04039108	     24.33597577	     24.33597577	      5.75153771	    -11.97483325	      3.37423832	     -8.98971710	      4.14296114	      7.08111251	     68.15118995	    -13.54343047	      4.76303840	    101.48762751	     44.92870846	      0.00000000	      0.00000000	    -10.22035743	    -12.92149585	     26.71468918	     33.93213776	     45.06498614	      0.00000000	      0.00000000
     14.48857143	     -5.67959971	     -3.95329903	      8.27127950	      1.01274169	      0.92067676	      0.48851772	      3.91721624	      0.13346733	     -8.18016090	     19.78123238	     19.78123238	     19.86397537	      5.35491139	     -1.63883527	     26.58515790	     -6.03925353	      4.87784261	     24.95135605	     24.95135605	      6.89895821	    -12.29014630	      5.09497999	     -8.95550433	      4.12907134	      6.41417204	     68.15353003	    -12.80590604	      5.00307987	     98.01423055	     45.06406171	      0.00000000	      0.00000000	     -9.44301820	    -12.23667567	     18.91704965	     33.97883248	     46.07254351	      0.00000000	      0.00000000
